<svg xmlns="http://www.w3.org/2000/svg" viewBox="0 0 16.594 16.594" fill="#fe3d4f"><path d="M9.35 9.147s-.717-6.853-3.416-6.853H1.599v6.303H.492c-1.107 0 0 3.918 0 3.918h.687a1.842 1.842 0 0 1 1.838-1.751c.985 0 1.79.778 1.837 1.751h2.241l-.002-.026c0-1.079.88-1.958 1.96-1.958a1.961 1.961 0 0 1 1.923 2.325h.693l-1.154-3.624c-1.059.597-1.165-.085-1.165-.085zm-3.491.217L4.837 7.575H2.622V3.317h3.129c.914 0 1.419 1.273 1.683 2.342.168.683.685 3.164.731 3.706H5.859v-.001z"/><path d="M9.062 10.758a1.7 1.7 0 1 0 .001 3.401 1.7 1.7 0 0 0-.001-3.401zm0 2.686a.985.985 0 1 1 .984-.985.985.985 0 0 1-.984.985zm-6.093-2.375a1.617 1.617 0 0 0 0 3.231c.891 0 1.615-.725 1.615-1.615a1.618 1.618 0 0 0-1.615-1.616zm0 2.551a.935.935 0 1 1 .001-1.871.935.935 0 0 1-.001 1.871zm13.606-2.779a.364.364 0 0 0-.461-.233l-3.544 1.167-3.063-9.202a.367.367 0 0 0-.695.232l3.18 9.548a.367.367 0 0 0 .462.232l3.89-1.282a.364.364 0 0 0 .231-.462z"/></svg>