<svg xmlns="http://www.w3.org/2000/svg" viewBox="0 0 25.848 25.848"><path d="M23.4 11.458s1.672-2.743 1.672-6.5c0-2.324-1.527-4.191-3.836-4.191A3.835 3.835 0 0 0 17.4 4.603c0 .959.5 3.355.5 3.355" fill="none" stroke="#fe3d4f" stroke-width="1.534" stroke-linecap="round" stroke-linejoin="round" stroke-miterlimit="10"/><path d="M21.367 6.165c-.18-1.494-.195-1.491-1.668-1.672-.249-.031-.512-.06-.779-.088-.006.067-.02.13-.02.198 0 .315.09.959.202 1.626.547.38.906 1.012.906 1.729a2.108 2.108 0 1 1-3.856-1.179c-.129-.758-.252-1.62-.252-2.176 0-.146.031-.281.043-.424-2.168-.113-4.096-.105-4.273.072L.523 15.397a1.756 1.756 0 0 0 0 2.484l7.453 7.452a1.755 1.755 0 0 0 2.484.001l11.146-11.147c.508-.506.066-5.473-.239-8.022zm-6.33 8.537a3.663 3.663 0 0 0-.946-1.582c-.958-.963-2.292-1.147-3.723-.401l2.722 2.722-.83.83-2.88-2.879c-.246.191-.372.286-.62.534-.208.207-.274.302-.443.512l2.888 2.888-.822.822-2.753-2.752c-.764 1.379-.679 2.737.375 3.792.47.469 1.092.842 1.582.986l-1.01 1.392c-.453-.104-1.264-.52-2.049-1.306-1.698-1.699-1.701-3.986-.203-6.17l-.722-.721.822-.822.63.63c.157-.18.207-.244.384-.422.271-.27.422-.385.698-.605l-.657-.657.83-.83.776.775c2.287-1.413 4.631-1.219 6.22.37.776.775 1.11 1.533 1.188 1.936l-1.457.958z" fill="#fe3d4f"/></svg>