<svg id="Layer_1" xmlns="http://www.w3.org/2000/svg" viewBox="0 0 468 182.2"><style>.st0{fill:#e22d3a}.st1{fill:#1919d1}</style><path class="st0" d="M214 63.6h12.3v115.8H214z"/><path class="st1" d="M287 148.9c-2.4-12.7-13.5-22.3-26.9-22.3s-24.5 9.6-26.9 22.3H287zm-54 8.5c1.7 13.5 13.2 23.9 27.1 23.9 13.9 0 25.4-10.4 27.1-23.9H233z"/><path class="st0" d="M193.7 63.6H206v115.8h-12.3zm-19.9 0h12.3v115.8h-12.3z"/><path class="st1" d="M196.3 27.5V2c-13.2 1.6-23.6 12.2-25 25.5h25zm7 0h25C227 14.2 216.6 3.6 203.3 2v25.5zm0 7V59c12.9-1.6 23.1-11.7 24.9-24.5h-24.9zm-7 0h-24.9c1.8 12.8 12 22.9 24.9 24.5V34.5z"/><path class="st0" d="M274.1 10.9h12.3v53h-12.3zm-20.4 0H266v53h-12.3zm-19.8.5h12.3v52h-12.3zm0 57.9h12.3v53h-12.3zm19.8 0H266v53h-12.3zm20.4 0h12.3v53h-12.3z"/><path d="M9.5 100.6v6.9c0 1.9.4 3.3 1.2 4.1.8.8 1.8 1.1 3.2 1.1 1.3 0 2.4-.4 3.2-1.1.8-.8 1.2-2.1 1.2-4.1V95.9h-7.7v-7.6h7.7v-9.7c0-1.9-.4-3.3-1.2-4.1-.8-.8-1.8-1.2-3.2-1.2-1.3 0-2.4.4-3.2 1.2-.8.8-1.2 2.2-1.2 4.1v5H1.7v-4.5c0-4.3 1-7.7 3.1-10s5.2-3.5 9.3-3.5c4.1 0 7.2 1.2 9.4 3.5 2.1 2.3 3.2 5.6 3.2 10v27.8c0 4.3-1.1 7.7-3.2 10s-5.2 3.5-9.4 3.5c-4.1 0-7.3-1.2-9.4-3.5-2.1-2.3-3.2-5.6-3.2-10v-6.3h8zm20.2 11.6c1 0 1.8-.1 2.4-.2.6-.1 1.2-.3 1.6-.7.4-.4.7-.9.9-1.7.2-.7.3-1.7.3-2.9l1.4-40.4h23.8v53.5h-8.6V73.9h-7.3l-.9 32.3c-.2 4.9-1.2 8.4-3.1 10.5-1.9 2.1-5 3.1-9.1 3.1h-1.3v-7.6zm64.8-46l-8.8 26 9.4 27.5h-8.9l-6.9-21.2-7 21.2h-7.9L74 92.2l-8.8-26h8.7L80.3 86l6.5-19.7h7.7zm13.5 53.5h-8.6V66.2h7.5v33.9l3.1-11.8 6.9-22.1h9.3v53.5h-7.6V82.1L115 95.2l-7 24.5zm41.8-15.5l5.7-38h11.7v53.5h-8V81.4l-5.8 38.4h-8L139.1 82v37.8h-7.3V66.2h11.7l6.3 38zm165.4-6.3v7.1c0 4.3-.9 7.7-2.7 10-1.8 2.3-4.4 3.5-7.9 3.5s-6.1-1.2-7.9-3.5c-1.8-2.3-2.7-5.6-2.7-10V77.2c0-4.3.9-7.7 2.7-10 1.8-2.3 4.4-3.5 7.9-3.5s6.1 1.2 7.9 3.5c1.8 2.3 2.7 5.6 2.7 10v5.2h-6.7v-5.7c0-1.9-.3-3.3-1-4.1-.7-.8-1.6-1.2-2.7-1.2s-2 .4-2.7 1.2c-.7.8-1 2.2-1 4.1v28.9c0 1.9.3 3.3 1 4.1.7.8 1.6 1.1 2.7 1.1s2-.4 2.7-1.1c.7-.8 1-2.1 1-4.1V98h6.7zm11.4-11h9.7v7.6h-9.7v15.7h12.3v7.6h-19.3V64.4h19.3V72h-12.3v14.9zm27.1-22.5c3.6 0 6.2 1.1 8 3.4 1.7 2.2 2.6 5.5 2.6 9.9v7c0 4.3-.9 7.6-2.6 9.9-1.7 2.2-4.4 3.4-8 3.4h-3.4v20.1h-7.1V64.4h10.5zm-3.4 7.6v18.1h3.4c1.1 0 2-.4 2.6-1.1.6-.7.9-2 .9-4v-8c0-1.9-.3-3.3-.9-4-.6-.7-1.5-1.1-2.6-1.1h-3.4zm27.9-7.6c3.7 0 6.4 1 8 3.1 1.7 2 2.5 5.1 2.5 9.3v1.9c0 2.8-.4 5-1.1 6.8-.7 1.8-1.9 3.1-3.5 4 1.9.9 3.3 2.3 4.1 4.2.8 2 1.2 4.4 1.2 7.2v4.4c0 4.1-.9 7.3-2.7 9.4-1.8 2.2-4.5 3.2-8.1 3.2h-11.2V64.4h10.8zm-3.6 7.6v14.1h2.8c1.3 0 2.4-.4 3.1-1.2.8-.8 1.1-2.3 1.1-4.4v-3c0-1.9-.3-3.3-.9-4.2-.6-.9-1.5-1.3-2.7-1.3h-3.4zm0 21.8v16.4h4.1c1.2 0 2.1-.4 2.7-1.1.6-.8.9-2.1.9-4.1v-4.7c0-2.5-.4-4.2-1.1-5.1s-1.9-1.4-3.5-1.4h-3.1zm39.7 4.1v7.1c0 4.3-.9 7.7-2.7 10-1.8 2.3-4.4 3.5-7.9 3.5s-6.1-1.2-7.9-3.5c-1.8-2.3-2.7-5.6-2.7-10V77.2c0-4.3.9-7.7 2.7-10 1.8-2.3 4.4-3.5 7.9-3.5s6.1 1.2 7.9 3.5c1.8 2.3 2.7 5.6 2.7 10v5.2h-6.7v-5.7c0-1.9-.3-3.3-1-4.1-.7-.8-1.6-1.2-2.7-1.2s-2 .4-2.7 1.2c-.7.8-1 2.2-1 4.1v28.9c0 1.9.3 3.3 1 4.1.7.8 1.6 1.1 2.7 1.1s2-.4 2.7-1.1c.7-.8 1-2.1 1-4.1V98h6.7zm11.6 20h-7.3V64.4h6.3v33.9l2.6-11.8 5.8-22.1h7.8v53.5h-6.4V80.2l-2.9 13.1-5.9 24.6zm40.8-20v7.1c0 4.3-.9 7.7-2.7 10-1.8 2.3-4.4 3.5-7.9 3.5s-6.1-1.2-7.9-3.5c-1.8-2.3-2.7-5.6-2.7-10V77.2c0-4.3.9-7.7 2.7-10 1.8-2.3 4.4-3.5 7.9-3.5s6.1 1.2 7.9 3.5c1.8 2.3 2.7 5.6 2.7 10v5.2H460v-5.7c0-1.9-.3-3.3-1-4.1-.7-.8-1.6-1.2-2.7-1.2s-2 .4-2.7 1.2c-.7.8-1 2.2-1 4.1v28.9c0 1.9.3 3.3 1 4.1.7.8 1.6 1.1 2.7 1.1s2-.4 2.7-1.1c.7-.8 1-2.1 1-4.1V98h6.7z" fill="#fff"/></svg>