<svg version="1.1" xmlns="http://www.w3.org/2000/svg" xmlns:xlink="http://www.w3.org/1999/xlink" x="0px" y="0px"
	 viewBox="0 0 25.848 25.848" style="enable-background:new 0 0 25.848 25.848;" xml:space="preserve">
<g>
	<path style="fill:none;stroke:#fe3d4f;stroke-width:1.5342;stroke-linecap:round;stroke-linejoin:round;stroke-miterlimit:10;" d="
		M23.4,11.458c0,0,1.672-2.743,1.672-6.5c0-2.324-1.527-4.191-3.836-4.191c-2.119,0-3.836,1.717-3.836,3.836
		c0,0.959,0.5,3.355,0.5,3.355"/>
	<path style="fill:#fe3d4f;" d="M21.367,6.165c-0.18-1.494-0.195-1.491-1.668-1.672c-0.249-0.031-0.512-0.06-0.779-0.088
		c-0.006,0.067-0.02,0.13-0.02,0.198c0,0.315,0.09,0.959,0.202,1.626c0.547,0.38,0.906,1.012,0.906,1.729
		c0,1.164-0.944,2.108-2.108,2.108s-2.108-0.944-2.108-2.108c0-0.437,0.133-0.842,0.36-1.179C16.023,6.021,15.9,5.159,15.9,4.603
		c0-0.146,0.031-0.281,0.043-0.424c-2.168-0.113-4.096-0.105-4.273,0.072L0.523,15.397c-0.686,0.686-0.686,1.799,0,2.484
		l7.453,7.452c0.686,0.687,1.799,0.687,2.484,0.001l11.146-11.147C22.114,13.681,21.672,8.714,21.367,6.165z M15.037,14.702
		c-0.135-0.476-0.418-1.055-0.946-1.582c-0.958-0.963-2.292-1.147-3.723-0.401l2.722,2.722l-0.83,0.83l-2.88-2.879
		c-0.246,0.191-0.372,0.286-0.62,0.534c-0.208,0.207-0.274,0.302-0.443,0.512l2.888,2.888l-0.822,0.822L7.63,15.396
		c-0.764,1.379-0.679,2.737,0.375,3.792c0.47,0.469,1.092,0.842,1.582,0.986l-1.01,1.392c-0.453-0.104-1.264-0.52-2.049-1.306
		c-1.698-1.699-1.701-3.986-0.203-6.17l-0.722-0.721l0.822-0.822l0.63,0.63c0.157-0.18,0.207-0.244,0.384-0.422
		c0.271-0.27,0.422-0.385,0.698-0.605L7.48,11.493l0.83-0.83l0.776,0.775c2.287-1.413,4.631-1.219,6.22,0.37
		c0.776,0.775,1.11,1.533,1.188,1.936L15.037,14.702z"/>
</g>
</svg>
