<?xml version="1.0" encoding="utf-8"?>
<!-- Generator: Adobe Illustrator 22.0.1, SVG Export Plug-In . SVG Version: 6.00 Build 0)  -->
<svg version="1.1" id="Layer_1" xmlns="http://www.w3.org/2000/svg" xmlns:xlink="http://www.w3.org/1999/xlink" x="0px" y="0px"
	 viewBox="0 0 468 182.2" style="enable-background:new 0 0 468 182.2;" xml:space="preserve">
<style type="text/css">
	.st0{fill:#E22D3A;}
	.st1{fill:#1919D1;}
	.st2{fill:#FFFFFF;}
	.st3{font-family:'BebasNeueBold';}
	.st4{font-size:60.5625px;}
</style>
<g>
	<rect x="214" y="63.6" class="st0" width="12.3" height="115.8"/>
	<g>
		<path class="st1" d="M287,148.9c-2.4-12.7-13.5-22.3-26.9-22.3s-24.5,9.6-26.9,22.3H287z"/>
		<path class="st1" d="M233,157.4c1.7,13.5,13.2,23.9,27.1,23.9c13.9,0,25.4-10.4,27.1-23.9H233z"/>
	</g>
	<rect x="193.7" y="63.6" class="st0" width="12.3" height="115.8"/>
	<rect x="173.8" y="63.6" class="st0" width="12.3" height="115.8"/>
	<g>
		<path class="st1" d="M196.3,27.5V2c-13.2,1.6-23.6,12.2-25,25.5H196.3z"/>
		<path class="st1" d="M203.3,27.5h25C227,14.2,216.6,3.6,203.3,2V27.5z"/>
		<path class="st1" d="M203.3,34.5V59c12.9-1.6,23.1-11.7,24.9-24.5H203.3z"/>
		<path class="st1" d="M196.3,34.5h-24.9c1.8,12.8,12,22.9,24.9,24.5V34.5z"/>
	</g>
	<g>
		<rect x="274.1" y="10.9" class="st0" width="12.3" height="53"/>
		<rect x="253.7" y="10.9" class="st0" width="12.3" height="53"/>
		<rect x="233.9" y="11.4" class="st0" width="12.3" height="52"/>
		<rect x="233.9" y="69.3" class="st0" width="12.3" height="53"/>
		<rect x="253.7" y="69.3" class="st0" width="12.3" height="53"/>
		<rect x="274.1" y="69.3" class="st0" width="12.3" height="53"/>
		<text transform="matrix(1 0 0 1 294 128.3397)" class="st2 st3 st4"> </text>
		<g>
			<path class="st2" d="M9.5,100.6v6.9c0,1.9,0.4,3.3,1.2,4.1c0.8,0.8,1.8,1.1,3.2,1.1c1.3,0,2.4-0.4,3.2-1.1
				c0.8-0.8,1.2-2.1,1.2-4.1V95.9h-7.7v-7.6h7.7v-9.7c0-1.9-0.4-3.3-1.2-4.1c-0.8-0.8-1.8-1.2-3.2-1.2c-1.3,0-2.4,0.4-3.2,1.2
				c-0.8,0.8-1.2,2.2-1.2,4.1v5H1.7v-4.5c0-4.3,1-7.7,3.1-10c2.1-2.3,5.2-3.5,9.3-3.5c4.1,0,7.2,1.2,9.4,3.5c2.1,2.3,3.2,5.6,3.2,10
				v27.8c0,4.3-1.1,7.7-3.2,10c-2.1,2.3-5.2,3.5-9.4,3.5c-4.1,0-7.3-1.2-9.4-3.5c-2.1-2.3-3.2-5.6-3.2-10v-6.3H9.5z"/>
			<path class="st2" d="M29.7,112.2c1,0,1.8-0.1,2.4-0.2c0.6-0.1,1.2-0.3,1.6-0.7c0.4-0.4,0.7-0.9,0.9-1.7c0.2-0.7,0.3-1.7,0.3-2.9
				l1.4-40.4h23.8v53.5h-8.6V73.9h-7.3l-0.9,32.3c-0.2,4.9-1.2,8.4-3.1,10.5c-1.9,2.1-5,3.1-9.1,3.1h-1.3V112.2z"/>
			<path class="st2" d="M94.5,66.2l-8.8,26l9.4,27.5h-8.9l-6.9-21.2l-7,21.2h-7.9L74,92.2l-8.8-26h8.7L80.3,86l6.5-19.7H94.5z"/>
			<path class="st2" d="M108,119.7h-8.6V66.2h7.5v33.9l3.1-11.8l6.9-22.1h9.3v53.5h-7.6V82.1L115,95.2L108,119.7z"/>
			<path class="st2" d="M149.8,104.2l5.7-38h11.7v53.5h-8V81.4l-5.8,38.4h-8l-6.3-37.8v37.8h-7.3V66.2h11.7L149.8,104.2z"/>
		</g>
		<g>
			<path class="st2" d="M315.2,97.9v7.1c0,4.3-0.9,7.7-2.7,10c-1.8,2.3-4.4,3.5-7.9,3.5c-3.5,0-6.1-1.2-7.9-3.5
				c-1.8-2.3-2.7-5.6-2.7-10V77.2c0-4.3,0.9-7.7,2.7-10c1.8-2.3,4.4-3.5,7.9-3.5c3.5,0,6.1,1.2,7.9,3.5c1.8,2.3,2.7,5.6,2.7,10v5.2
				h-6.7v-5.7c0-1.9-0.3-3.3-1-4.1c-0.7-0.8-1.6-1.2-2.7-1.2c-1.1,0-2,0.4-2.7,1.2c-0.7,0.8-1,2.2-1,4.1v28.9c0,1.9,0.3,3.3,1,4.1
				c0.7,0.8,1.6,1.1,2.7,1.1c1.1,0,2-0.4,2.7-1.1c0.7-0.8,1-2.1,1-4.1v-7.6H315.2z"/>
			<path class="st2" d="M326.6,86.9h9.7v7.6h-9.7v15.7h12.3v7.6h-19.3V64.4h19.3V72h-12.3V86.9z"/>
			<path class="st2" d="M353.7,64.4c3.6,0,6.2,1.1,8,3.4c1.7,2.2,2.6,5.5,2.6,9.9v7c0,4.3-0.9,7.6-2.6,9.9c-1.7,2.2-4.4,3.4-8,3.4
				h-3.4v20.1h-7.1V64.4H353.7z M350.3,72v18.1h3.4c1.1,0,2-0.4,2.6-1.1c0.6-0.7,0.9-2,0.9-4v-8c0-1.9-0.3-3.3-0.9-4
				c-0.6-0.7-1.5-1.1-2.6-1.1H350.3z"/>
			<path class="st2" d="M378.2,64.4c3.7,0,6.4,1,8,3.1c1.7,2,2.5,5.1,2.5,9.3v1.9c0,2.8-0.4,5-1.1,6.8c-0.7,1.8-1.9,3.1-3.5,4
				c1.9,0.9,3.3,2.3,4.1,4.2c0.8,2,1.2,4.4,1.2,7.2v4.4c0,4.1-0.9,7.3-2.7,9.4c-1.8,2.2-4.5,3.2-8.1,3.2h-11.2V64.4H378.2z
				 M374.6,72v14.1h2.8c1.3,0,2.4-0.4,3.1-1.2c0.8-0.8,1.1-2.3,1.1-4.4v-3c0-1.9-0.3-3.3-0.9-4.2c-0.6-0.9-1.5-1.3-2.7-1.3H374.6z
				 M374.6,93.8v16.4h4.1c1.2,0,2.1-0.4,2.7-1.1c0.6-0.8,0.9-2.1,0.9-4.1v-4.7c0-2.5-0.4-4.2-1.1-5.1s-1.9-1.4-3.5-1.4H374.6z"/>
			<path class="st2" d="M414.3,97.9v7.1c0,4.3-0.9,7.7-2.7,10c-1.8,2.3-4.4,3.5-7.9,3.5c-3.5,0-6.1-1.2-7.9-3.5
				c-1.8-2.3-2.7-5.6-2.7-10V77.2c0-4.3,0.9-7.7,2.7-10c1.8-2.3,4.4-3.5,7.9-3.5c3.5,0,6.1,1.2,7.9,3.5c1.8,2.3,2.7,5.6,2.7,10v5.2
				h-6.7v-5.7c0-1.9-0.3-3.3-1-4.1c-0.7-0.8-1.6-1.2-2.7-1.2c-1.1,0-2,0.4-2.7,1.2c-0.7,0.8-1,2.2-1,4.1v28.9c0,1.9,0.3,3.3,1,4.1
				c0.7,0.8,1.6,1.1,2.7,1.1c1.1,0,2-0.4,2.7-1.1c0.7-0.8,1-2.1,1-4.1v-7.6H414.3z"/>
			<path class="st2" d="M425.9,117.9h-7.3V64.4h6.3v33.9l2.6-11.8l5.8-22.1h7.8v53.5h-6.4V80.2l-2.9,13.1L425.9,117.9z"/>
			<path class="st2" d="M466.7,97.9v7.1c0,4.3-0.9,7.7-2.7,10c-1.8,2.3-4.4,3.5-7.9,3.5c-3.5,0-6.1-1.2-7.9-3.5
				c-1.8-2.3-2.7-5.6-2.7-10V77.2c0-4.3,0.9-7.7,2.7-10c1.8-2.3,4.4-3.5,7.9-3.5c3.5,0,6.1,1.2,7.9,3.5c1.8,2.3,2.7,5.6,2.7,10v5.2
				H460v-5.7c0-1.9-0.3-3.3-1-4.1c-0.7-0.8-1.6-1.2-2.7-1.2c-1.1,0-2,0.4-2.7,1.2c-0.7,0.8-1,2.2-1,4.1v28.9c0,1.9,0.3,3.3,1,4.1
				c0.7,0.8,1.6,1.1,2.7,1.1c1.1,0,2-0.4,2.7-1.1c0.7-0.8,1-2.1,1-4.1v-7.6H466.7z"/>
		</g>
	</g>
</g>
</svg>
